<?xml version="1.0" encoding="UTF-8" standalone="no"?>

<svg
   xmlns:svg="http://www.w3.org/2000/svg"
   xmlns="http://www.w3.org/2000/svg"
   xmlns:xlink="http://www.w3.org/1999/xlink"
   version="1.0"
   viewBox="0 0 140 57"
   id="svgroot">

<defs>
  <filter id="shadow">
    <feDropShadow dx="0.6" dy="0.6" stdDeviation="0.5" flood-opacity="0.5"/>
  </filter>

  <filter id="darken">
    <feComponentTransfer>
      <feFuncR type="linear" slope="0.5" />
      <feFuncG type="linear" slope="0.5" />
      <feFuncB type="linear" slope="0.5" />
    </feComponentTransfer>
  </filter>
</defs>

<g id="coat" filter="url(#shadow)" >

  <path id="arm-right"
        d="M 7,2
           l -2,23
           l 8,0
           l 2,-23
           z
          "
        stroke-width="2"
        stroke-linecap="round"
        stroke-linejoin="round"
        stroke="#a1462d"
        fill="#e4e7cb"
        />

  <path id="arm-left"
        d="M 43,2
           l 2,23
           l -8,0
           l -2,-23
           z
          "
        stroke-width="2"
        stroke-linecap="round"
        stroke-linejoin="round"
        stroke="#a1462d"
        fill="#e4e7cb"
        />

  <path id="main-part"
        d="M 15,2
           l -3,46
           l 26,0
           l -3,-46
           z
          "
        stroke-width="2"
        stroke-linecap="round"
        stroke-linejoin="round"
        stroke="#a1462d"
        fill="#e4e7cb"
        />

  <path id="button-border"
        d="M 25,15
           l 0,33
          "
        stroke-width="2"
        stroke-linecap="round"
        stroke-linejoin="round"
        stroke="#a1462d"
        fill="none"
        />

  <path id="lapel"
        d="M 25,2
           l -5,4
           l 5,8
           l 5,-8
           l -5,-4
           z
          "
        stroke-width="2"
        stroke-linecap="round"
        stroke-linejoin="round"
        stroke="#a1462d"
        fill="#e4e7cb"
        />
</g>

<g
     aria-label="Coat"
     id="caption"
     transform="translate(50,48)"
     filter="url(#shadow)"
     fill="#a1462d">
    <path
       d="m 20.37,-23.065 q 0.84,0.455 0.84,1.4 0,0.63 -0.42,1.155 -0.42,0.56 -1.155,0.56 -0.49,0 -0.945,-0.245 -2.17,-1.225 -4.69,-1.225 -2.625,0 -4.655,1.155 -1.995,1.155 -3.115,3.255 -1.12,2.065 -1.12,4.76 0,2.905 1.155,5.005 1.155,2.1 3.185,3.22 2.03,1.085 4.55,1.085 2.59,0 4.69,-1.26 0.42,-0.21 0.91,-0.21 0.77,0 1.225,0.595 0.42,0.525 0.42,1.12 0,0.42 -0.245,0.805 -0.21,0.35 -0.595,0.56 -1.365,0.77 -3.08,1.225 Q 15.645,0.35 14,0.35 10.605,0.35 7.735,-1.155 4.9,-2.66 3.185,-5.53 q -1.68,-2.87 -1.68,-6.72 0,-3.535 1.61,-6.37 1.645,-2.87 4.48,-4.48 2.87,-1.645 6.405,-1.645 3.395,0 6.37,1.68 z"
       id="letter-C" />
    <path
       d="m 42.175017,-9.17 q 0,2.73 -1.225,4.9 -1.225,2.17 -3.36,3.395 -2.1,1.225 -4.655,1.225 -2.555,0 -4.69,-1.225 -2.1,-1.225 -3.325,-3.395 -1.225,-2.17 -1.225,-4.9 0,-2.73 1.225,-4.935 1.225,-2.205 3.325,-3.43 2.135,-1.225 4.69,-1.225 2.555,0 4.655,1.225 2.135,1.225 3.36,3.43 1.225,2.205 1.225,4.935 z m -3.325,0 q 0,-1.89 -0.805,-3.36 -0.77,-1.505 -2.135,-2.31 -1.33,-0.84 -2.975,-0.84 -1.645,0 -3.01,0.84 -1.33,0.805 -2.135,2.31 -0.77,1.47 -0.77,3.36 0,1.855 0.77,3.325 0.805,1.47 2.135,2.31 1.365,0.805 3.01,0.805 1.645,0 2.975,-0.805 1.365,-0.84 2.135,-2.31 0.805,-1.47 0.805,-3.325 z"
       id="letter-o" />
    <path
       d="m 60.900047,-18.585 q 0.735,0 1.19,0.49 0.49,0.455 0.49,1.225 v 15.19 q 0,0.7 -0.49,1.19 -0.455,0.49 -1.19,0.49 -0.735,0 -1.19,-0.455 -0.455,-0.49 -0.455,-1.225 v -0.91 q -0.91,1.225 -2.485,2.1 -1.575,0.84 -3.395,0.84 -2.38,0 -4.34,-1.225 -1.925,-1.225 -3.045,-3.395 -1.085,-2.205 -1.085,-4.935 0,-2.73 1.085,-4.9 1.12,-2.205 3.045,-3.43 1.925,-1.225 4.235,-1.225 1.855,0 3.43,0.77 1.61,0.77 2.555,1.96 v -0.84 q 0,-0.735 0.455,-1.225 0.455,-0.49 1.19,-0.49 z m -7.14,15.855 q 1.645,0 2.905,-0.84 1.295,-0.84 1.995,-2.31 0.735,-1.47 0.735,-3.325 0,-1.82 -0.735,-3.29 -0.7,-1.47 -1.995,-2.31 -1.26,-0.875 -2.905,-0.875 -1.645,0 -2.94,0.84 -1.26,0.84 -1.995,2.31 -0.7,1.47 -0.7,3.325 0,1.855 0.7,3.325 0.735,1.47 1.995,2.31 1.295,0.84 2.94,0.84 z"
       id="letter-a" />
    <path
       d="m 72.48506,-15.085 v 10.43 q 0,1.75 1.575,1.75 0.245,0 0.665,-0.105 0.42,-0.14 0.665,-0.14 0.455,0 0.77,0.385 0.315,0.385 0.315,0.98 0,0.735 -0.84,1.26 -0.84,0.525 -1.89,0.525 -1.155,0 -2.135,-0.245 -0.945,-0.245 -1.715,-1.225 -0.735,-1.015 -0.735,-3.045 v -10.57 h -2.03 q -0.665,0 -1.12,-0.42 -0.42,-0.455 -0.42,-1.12 0,-0.665 0.42,-1.085 0.455,-0.42 1.12,-0.42 h 2.03 v -2.94 q 0,-0.7 0.455,-1.19 0.49,-0.49 1.225,-0.49 0.7,0 1.155,0.49 0.49,0.49 0.49,1.19 v 2.94 h 2.905 q 0.665,0 1.085,0.455 0.455,0.42 0.455,1.085 0,0.665 -0.455,1.085 -0.42,0.42 -1.085,0.42 z"
       id="letter-t" />
  </g>
</svg>

